<svg xmlns="http://www.w3.org/2000/svg" viewBox="0 0 141.9 150.1">
  <defs>
    <style>
      .cls-1 {
        fill: #f2675d;
      }

      .cls-2 {
        fill: #231f20;
      }
    </style>
  </defs>
  <title>Circle</title>
  <g id="Circle__Fill" data-name="Circle _Fill">
    <circle class="cls-1" cx="99.3" cy="107.5" r="42.6"/>
  </g>
  <g id="Circle_Outline">
    <path class="cls-2" d="M71.7,146.7a54.6,54.6,0,0,1-17-2.5,72,72,0,0,1-21.3-11,61.2,61.2,0,0,1-15.8-16c-3.1-4.9-5.3-10.8-6.8-18.6A92.9,92.9,0,0,1,9,76.2c.3-7.9,1.3-14,3.3-19.3A57.2,57.2,0,0,1,22.4,40.1a100.9,100.9,0,0,1,35.1-27A57.6,57.6,0,0,1,76.3,7.7l4-.2A55.7,55.7,0,0,1,97,10.3c13.5,4.4,26.2,13.7,35.7,26.2s15.1,27.7,15.4,42.3a57.7,57.7,0,0,1-.8,10.2c-1.9,12.6-8.5,24.8-18.5,34.5a84.7,84.7,0,0,1-34.3,19.7,82.2,82.2,0,0,1-22.8,3.5ZM80.5,8.3a46.6,46.6,0,0,0-13.3,2,75.8,75.8,0,0,0-19,8.7c-13.4,8.2-24.1,18.4-31,29.6a46.1,46.1,0,0,0-6.4,17A88.7,88.7,0,0,0,10,87.1a80.7,80.7,0,0,0,4.1,21,46.1,46.1,0,0,0,10.9,17A76.3,76.3,0,0,0,44,139c7.5,3.8,14.7,6.1,21.5,6.7q3,.3,6,.3a84.4,84.4,0,0,0,31.9-6.8c12.7-5.4,23.6-13.5,31.3-23.3a59.5,59.5,0,0,0,12.6-37.1,67.4,67.4,0,0,0-1.2-11.2,76.9,76.9,0,0,0-21.2-38.9c-11.2-11.2-24.8-18.3-38.4-20C84.5,8.5,82.5,8.3,80.5,8.3Z" transform="translate(-8.9 -7.5)"/>
  </g>
</svg>
