<?xml version="1.0" encoding="utf-8"?>
<!-- Generator: Adobe Illustrator 23.1.0, SVG Export Plug-In . SVG Version: 6.00 Build 0)  -->
<svg version="1.1" id="Layer_1" xmlns="http://www.w3.org/2000/svg" xmlns:xlink="http://www.w3.org/1999/xlink" x="0px" y="0px"
	 viewBox="0 0 85.8 95" style="enable-background:new 0 0 85.8 95;" xml:space="preserve">
<style type="text/css">
	.st0{fill:#231F20;}
	.st1{fill:#F2665D;}
</style>
<g id="Leaf">
	<path class="st0" d="M76.1,52.1C72,52.3,67.9,53,64,54.3c-7.9,2.3-15.4,6.4-20.6,12.8c-1.2,1.5-2.2,3.1-3.1,4.7V55.5
		c3.8-0.4,7.5-1.3,11.1-2.7c6.8-3,12.2-8.6,14.8-15.6c1.7-4,2.6-8.3,2.8-12.7c0-0.4-0.9-0.3-1.1-0.3c-3.4,0.4-6.8,1.2-10,2.5
		C51.8,29,46.1,32.5,42,37.8c-0.6,0.8-1.2,1.6-1.7,2.5V27.7c3.1-0.2,6.1-0.9,8.9-2.1c5.4-2.4,9.7-6.8,11.9-12.3
		c1.3-3.2,2.1-6.5,2.3-9.9c0-0.2-0.6-0.3-0.7-0.3c-2.8,0.1-5.6,0.6-8.3,1.4c-5.1,1.5-10,4-13.5,8.2l-0.6,0.8v-1
		c0-3.7,0.1-7.4,0-11.1V1.2c0-1.9-3.8-1.3-3.8,0.3v10.9c-2.1-2.5-4.7-4.5-7.6-6c-3.7-1.7-7.7-2.8-11.8-3.1h-1.3
		c-1,0.2-2.1,0.6-2.1,1.1c0.5,8.2,5.1,17,12.5,20.8c3.2,1.6,6.7,2.4,10.3,2.5v11.7c-2.8-4.6-6.9-8.3-11.7-10.8
		c-4.7-2.4-9.8-3.8-15.1-4.2c-0.8-0.2-3.5,0.4-3.4,1.2l0,0c0.3,3.6,1.2,7.2,2.6,10.5c2.6,6.7,7.2,12.7,13.6,16
		c4.3,2.2,9.1,3.3,14,3.4v14.8c-3.3-5.6-8.2-10.1-14.1-13c-5.8-2.7-12-4.4-18.3-4.9c-0.5-0.1-1.1-0.1-1.6,0H1.6
		c-0.5,0.3-1,0.6-0.9,1c0.2,4.4,1.1,8.8,2.6,12.9c2.9,8.3,8.2,15.7,16,19.9c5.2,2.8,10.9,4.3,16.8,4.5h0.4V93c0,1.9,3.8,1.3,3.8-0.3
		v-2c4.9-0.3,9.7-1.3,14.2-3.2c8.7-3.7,15.1-10.8,18.8-19.4c1.4-3.2,2.4-6.4,3.1-9.8c0.4-1.7,0.7-3.5,0.8-5.3v-0.5
		C77.2,52.1,76.3,52.1,76.1,52.1z M73.5,53.5L73.5,53.5C73.5,53.2,73.5,53.4,73.5,53.5z M51.3,31.7c2.2-1.6,4.5-2.9,7-3.9l1.6-0.6
		l0.9-0.3c0.5-0.2,0,0,0.5-0.1l1.4-0.4l0.7-0.2h0.3l1.5-0.3c-0.2,3.2-0.7,6.4-1.7,9.4c-2,6.3-5.7,12.3-11.4,15.7
		c-3.6,2.1-7.7,3.2-11.8,3.2v-4.8C41.6,42.3,45.5,36,51.3,31.7z M48.9,8.2c1.7-1.1,3.6-2,5.5-2.6h0.4l0.6-0.2l1-0.2L57.5,5h0.8
		l1.3-0.2c-0.3,7.3-3.9,15.5-10.2,19.4c-2.8,1.6-5.9,2.4-9.1,2.4v-5C41.2,16.1,44.3,11.3,48.9,8.2z M30.3,24.3
		c-4.9-2.5-8.7-6.7-10.6-11.8c-1-2.3-1.7-4.8-2-7.3c5,0.8,9.7,3.1,13.4,6.5c2.5,2.4,4.3,5.4,5.1,8.8c0.1,0.6,0.2,1.2,0.3,1.8v3.9
		C34.3,25.9,32.3,25.2,30.3,24.3z M27,51.4c-6.5-3-11.2-8.7-13.9-15.2c-1.4-3.2-2.4-6.5-2.9-9.9c7,1.2,13.7,4,18.8,9.2
		c3.3,3.5,5.7,7.7,7,12.4c0.2,0.9,0.4,1.8,0.5,2.7l0,0V54C33.2,53.7,30,52.8,27,51.4z M24.4,85.9c-7.9-3.6-13.5-10.7-16.7-18.7
		c-1.2-3-2.1-6.1-2.6-9.2c-0.2-1.1-0.4-2.1-0.5-3.2v-0.3c8.7,1.3,17.2,4.4,23.5,10.7c3.9,4,6.7,9,7.9,14.4c0.3,1,0.4,2.1,0.5,3.1
		l0,0v6C32.3,88.5,28.2,87.5,24.4,85.9z M73,56.9c-0.5,2.9-1.2,5.8-2.2,8.6c-2.7,7.7-7.4,15-14.6,19.2c-4.6,2.6-9.7,4.1-15,4.2h-0.9
		v-7.3c1.6-8.7,6.7-16.5,14.1-21.3c1.5-0.9,3.2-1.8,4.7-2.5l2.2-0.9l1.2-0.5l0.6-0.2h0.4c1.4-0.5,2.8-0.9,4.3-1.2h0.7l0.9-0.2
		l1.7-0.3l1.6-0.2h0.7v0.3C73.3,55.4,73.2,56.1,73,56.9z"/>
</g>
<g id="Cross">
	<path class="st1" d="M0.2,2.2l8.2,9.2L28,33.5l23.8,26.7l20.5,23.1l6.8,7.6c1.1,1.2,2.1,2.6,3.2,3.6s0.1,0.2,0.2,0.2
		s4.1-0.3,3.2-1.4l-8.2-9.1L57.9,62.1L34.1,35.4L13.6,12.3L6.8,4.6C5.7,3.5,4.7,2.1,3.5,1H3.4C2.6,0.1-0.7,1.3,0.2,2.3L0.2,2.2z"/>
</g>
</svg>
