<svg id="Line" xmlns="http://www.w3.org/2000/svg" viewBox="0 0 1040.4 513">
  <defs>
    <style>
      .cls-1 {
        fill: #f2675d;
      }
    </style>
  </defs>
  <title>Line</title>
  <path class="cls-1" d="M67.5,133.6q66.6-14.7,132.4-32.9c21.6-6,43.2-12.3,64.5-19.2s40.3-14.3,60.3-22c30.5-11.7,61.7-22.1,93.3-30.8,27.6-7.6,58.7-15.2,87.4-9.5,11.8,2.4,23.1,7.9,30.6,17.7s8.8,20,7.5,31c-3.2,25.6-20,48.9-35.7,68.5-38.5,47.8-87.5,86.1-140.5,116.7C301.2,291.3,229.8,319,161.8,353.5c-32.1,16.4-62.6,35.1-93,54.5C45.2,423.1,16,442,9.9,471.6c-7.1,35,33.2,52.2,61.2,55.2,20.5,2.2,41.5.4,61.9-1.5,21.9-2.1,43.6-5.4,65.2-9.5,86.4-16.5,168.9-46.6,253-71.9s171.1-45.5,258.7-57.5A1298.1,1298.1,0,0,1,978.6,377q33.8,2.4,67.4,6.5c1.4.2,5.1-2,2.7-2.3A1287,1287,0,0,0,781.1,376c-87.8,7.6-174.8,23.8-260.1,46s-168.7,53.3-254.2,75.8c-43.1,11.3-86.9,20.5-131.2,24.9-36.1,3.5-86.9,9.7-113.4-21.5-24.7-29,7.6-62.6,30.7-79.4,12.3-8.9,25.4-16.7,38.2-25,15.9-10.5,32.4-20.1,49.2-29.3,67.6-36.7,139.6-64.3,207.3-100.6,55.6-29.9,107.1-66.4,149.6-113.3,17.8-19.7,35.2-41.4,45.2-66.3,8.1-20.2,9.2-44.1-9.2-59.2s-49-14.4-72.6-11c-28,4.1-55,12.7-81.9,21.1C339.6,50.6,302,67,262.9,79.6c-43,13.9-86.6,25.5-130.4,36.4-21.8,5.4-43.7,10.6-65.6,15.4-2.6.6-2,2.8.6,2.2Z" transform="translate(-9.1 -14.8)"/>
</svg>
