<?xml version="1.0" encoding="utf-8"?>
<!-- Generator: Adobe Illustrator 23.1.0, SVG Export Plug-In . SVG Version: 6.00 Build 0)  -->
<svg version="1.1" id="Layer_1" xmlns="http://www.w3.org/2000/svg" xmlns:xlink="http://www.w3.org/1999/xlink" x="0px" y="0px"
	 viewBox="0 0 90.7 93.7" style="enable-background:new 0 0 90.7 93.7;" xml:space="preserve">
<style type="text/css">
	.st0{fill:#231F20;}
	.st1{fill:#F37269;}
</style>
<g id="Cube_1">
	<path class="st0" d="M47.9,68.7l-6.3-5.4l-4.4-3.6c-1.3-1.1-2.9-1.1-4.5-1.3l-15.3-1.9l-1.2-0.2c-0.6,0-1.1,0.2-1.5,0.6
		c-0.3,0.1-0.5,0.3-0.6,0.5c-1.4,3.7-2.9,7.4-4.3,11s-2,4.9-2.9,7.4S5.1,79,6.1,80.2c0.3,0.4,0.7,0.8,1.2,1.1
		c0.9,0.7,1.8,1.4,2.6,2.2l6.5,5.3c1.2,1,2.5,2.4,4.1,2.7l5,0.5c4.6,0.6,9.3,1.3,14,1.7c1.3,0.2,2.7-0.4,3.5-1.4
		c0.3-0.4,0.5-0.9,0.6-1.4c0.8-2.1,1.6-4.2,2.5-6.2l3-7.9c0.5-1.4,1.2-2.7,1.6-4.1S49.1,69.7,47.9,68.7z M33.2,60.4
		c1.1,0.3,2,0.9,2.8,1.7l8.4,7.1L33.1,68l-2.3-0.3c-0.6-0.2-1.2-0.5-1.6-0.9l-6.1-5.3l-3.3-2.8l7.6,0.9C29.3,59.9,31.3,60,33.2,60.4
		z M9.8,79.9c-0.6-0.5-1.2-0.9-1-1.8c0.1-0.3,0.2-0.7,0.4-1c0.8-2,1.6-4,2.3-6c1.6-3.9,3.2-7.9,4.7-11.8l10.4,8.9l1.2,0.9
		c-2.5,6.3-5,12.6-7.6,18.9v0.4L9.8,79.9z M47.7,73l-0.4,1.2l-2.4,6.2l-3,7.5l-1.1,2.9c-0.2,0.3-0.3,0.6-0.4,1h-0.2l-2.5-0.3
		l-7.9-0.9l-6.9-0.8h-0.6c2.4-6.2,4.9-12.4,7.4-18.7c0.2-0.4,0.3-0.8,0.5-1.3H31l8.7,1l7,0.7c0.2,0.1,0.4,0,0.5,0S47.9,72.3,47.7,73
		z"/>
</g>
<g id="Cube_2">
	<path class="st0" d="M90.5,61.1c-0.5-2-0.9-4.1-1.4-6.1l-1.7-7.5c-0.3-1.2-0.4-2.5-0.8-3.7s-2.9-1.6-4.5-1.7l-7.5-0.9l-5.3-0.5
		c-1.7-0.2-3,0.5-4.5,1.3l-12.5,6.3l-0.8,0.4c-0.7,0.2-1.2,0.7-1.1,1.2c0.8,3.5,1.5,7.1,2.3,10.7c0.8,3.6,1,4.7,1.6,7
		s0.3,3.1,1.7,3.7c1.5,0.4,3.1,0.5,4.7,0.5l7.7,0.8c1.6,0.2,3.5,0.6,5-0.1c1.3-0.5,2.5-1.2,3.7-1.9l11.8-6c0.9-0.4,1.6-1.2,1.8-2.2
		C90.7,62,90.6,61.5,90.5,61.1z M67.2,42.7c0.8-0.3,1.7-0.3,2.6-0.1L80,43.7l-9.9,5.2C69,49.5,68.2,50.1,67,50l-7.4-0.9l-4.1-0.5
		l6.8-3.4C64,44.3,65.6,43.4,67.2,42.7z M58.9,69.8c-0.7-0.1-0.9,0-1.2-0.7s-0.1-0.6-0.2-1l-1.2-5.6l-2.6-11.9l12,1.4h0.9
		c1.3,6,2.5,11.9,3.8,17.8l0.3,1.1L58.9,69.8z M85.3,64.5L79,67.7l-5.3,2.8c-1.2-5.7-2.4-11.4-3.7-17.1c-0.1-0.7-0.2-1.3-0.4-2
		l0.8-0.3l7-3.7l5.8-3l0.2-0.2c0.1,0.1,0.1,0.2,0.2,0.5c0.1,0.4,0.2,0.8,0.3,1.2l1.3,5.9c0.6,2.4,1.1,4.8,1.6,7.2
		c0.4,1.2,0.7,2.4,0.9,3.7c0,0.2-0.1,0.4-0.1,0.6h-0.3L85.3,64.5z"/>
</g>
<g id="Cube_3">
	<path class="st0" d="M50.1,21.2l-5.7-2.7l-3.9-1.9c-1.2-0.5-2.6-0.5-3.9-0.2L25.2,18h-0.8c-0.5,0-0.9,0.1-1.3,0.4
		c-0.1,0-0.1,0-0.1,0.1h-0.2c0,0.1,0,0.1-0.1,0.1l0,0c-0.1,0.1-0.1,0.1-0.1,0.2c-0.3,3-0.7,6-1.1,9l-0.7,5.9c-0.1,1-0.5,2.5,0.4,3.3
		c1.1,0.7,2.3,1.3,3.5,1.7l5.7,2.6c1.1,0.7,2.4,1.1,3.7,1.2l3.4-0.5c3.6-0.5,7.2-0.9,10.8-1.5c1.5-0.2,2.6-0.9,2.8-2.5l0.6-4.9
		c0.3-3.3,0.9-6.5,1.1-9.7C52.8,22.1,51.3,21.7,50.1,21.2z M37.3,18c0.7,0.1,1.5,0.3,2.1,0.7l7.1,3.3l-7.7,1.2
		c-0.9,0.2-1.8,0.2-2.7,0l-5.4-2.6L28,19.3l4.8-0.7L37.3,18z M24.5,36.3c-1-0.4-0.9-1-0.8-2s0.5-3.9,0.7-5.9s0.7-5.1,1-7.6l8.2,4
		l1,0.4l-1.8,15L24.5,36.3z M49.7,25l-0.6,5.2c-0.2,1.9-0.5,3.9-0.7,5.8s-0.1,1.4-0.2,2.1s-0.2,0.9-0.1,1l0,0l-1.9,0.3l-5.7,0.8
		l-4.9,0.7l1.8-14.6c0-0.3,0-0.6,0.1-0.9h0.1l6.3-1l5.4-0.8h0.2C49.8,23.9,49.7,24.4,49.7,25z"/>
</g>
<g id="Arrow_Left">
	<path class="st1" d="M12.9,37.1c-0.4,0-1.7,0.3-1.8,0.9c-0.3,0.9-0.7,1.7-1.2,2.4c-0.2,0.4-0.4,0.9-0.7,1.4l-0.3,0.7v-0.3
		c-0.1-2,0-4,0-6.1v-6c0-1.8,0.1-3.5,0.1-5.2s-3-0.4-3,0.7s-0.1,3.5-0.1,5.3v12.9l-3-4.3c-0.3-0.2-0.6-0.3-0.9-0.3
		c-0.4,0-0.8,0.1-1.1,0.3c-0.5,0.2-1.2,0.6-0.8,1.2c1.9,2.7,4,5.3,5.3,8.4c0.3,0.6,1.2,0.5,1.7,0.4h0.3c0.7-0.2,1.3-0.6,1.3-1.1l0,0
		c0.4-0.7,0.8-1.4,1.1-2.2c0.5-1.1,1.1-2.1,1.6-3.2c0.4-1,0.9-1.9,1.4-2.8c0.4-0.9,1.2-1.6,1.3-2.6S13.2,37,12.9,37.1z"/>
</g>
<g id="Arrow_Right">
	<path class="st1" d="M69.5,15c-0.1,1-0.9,1.7-1.4,2.6s-0.5,1.1-0.8,1.6c-0.3,0.5-0.6,1-0.8,1.5V6.3c0-2,0.2-3.9,0.2-5.9
		s-3-0.3-3,0.8s-0.2,3.9-0.2,5.9v15.1c-1.2-1.8-2.6-3.6-3.9-5.4s-3.5,0.1-2.7,1.2c2.1,3,4.5,5.9,6.1,9.3c0.2,0.6,1.1,0.6,1.7,0.4
		h0.1c0.8-0.2,1.5-0.6,1.5-1.2l0,0c0.5-0.8,1-1.6,1.3-2.5l1.8-3.5c0.5-1.1,1.1-2.1,1.6-3.1s1.3-1.8,1.5-2.9S69.7,14.1,69.5,15z"/>
</g>
</svg>
