<svg xmlns="http://www.w3.org/2000/svg" viewBox="0 0 66.9 93.4">
  <defs>
    <style>
      .cls-1 {
        fill: #231f20;
      }

      .cls-2 {
        fill: #f37268;
      }
    </style>
  </defs>
  <title>No_Colour</title>
  <g id="Drop_Leaf" data-name="Drop Leaf">
    <path class="cls-1" d="M54.7,6.2A329.7,329.7,0,0,0,33.2,39.8c-2.2,3.9-4.3,7.9-6.1,11.9a51.3,51.3,0,0,0-3.4,10,30.6,30.6,0,0,0,6.4,25.1c13,15.8,40.9,15.8,53.3-.7A33.3,33.3,0,0,0,89.8,63c-.7-6.9-4.5-13.4-7.7-19.4A426.4,426.4,0,0,0,58.6,6.2a4.3,4.3,0,0,0-.4-.7c-.6-.9-3.8.5-3.5.9,7,10.2,13.8,20.6,20,31.2,3.9,6.6,7.9,13.5,10.4,20.7A29.8,29.8,0,0,1,84,79.5c-3.2,7.9-9.7,14.7-18.2,16.8a33.5,33.5,0,0,1-29-7.2A30.3,30.3,0,0,1,26.6,65.3c.4-7.7,4.1-15,7.6-21.7A318.4,318.4,0,0,1,57.6,6.4a3.5,3.5,0,0,0,.5-.8c.4-.5-1.2-.3-1.4-.3A2.9,2.9,0,0,0,54.7,6.2Z" transform="translate(-23.1 -5.2)"/>
  </g>
  <g id="Drop_Colour" data-name="Drop Colour">
    <path class="cls-2" d="M41.1,5.8c-3.8,6.5-10.4,12.1-13.4,18.3s-4.3,15.5,2,21.9c3.2,3.1,7.4,4.2,11.8,4.2a15.5,15.5,0,0,0,14.2-9.9c2.7-6.4,1.1-12.1-2.3-17.7C52.6,21.2,40.7,6.2,41.1,5.8Z" transform="translate(-23.1 -5.2)"/>
  </g>
</svg>
