<svg xmlns="http://www.w3.org/2000/svg" viewBox="0 0 100.8 74.5">
  <defs>
    <style>
      .cls-1 {
        fill: #231f20;
      }

      .cls-2 {
        fill: #f37268;
      }
    </style>
  </defs>
  <title>Vegan</title>
  <g id="Leaf">
    <g id="Leaf-2" data-name="Leaf">
      <path class="cls-1" d="M104.3,52.3c-9-2.4-19.2-3.5-28.2-.7C69,53.7,63,59.5,61.3,66.8a16.4,16.4,0,0,0,1.5,11.5l-1.4,1.9A30.9,30.9,0,0,0,58,86.7a31.4,31.4,0,0,0-5-9.8l.4-.5c3.6-4.4,6.3-9.9,6.2-15.6s-3-10.8-6.6-15C45.9,37.5,35.9,32.5,25.4,30A86.3,86.3,0,0,0,7.1,27.9c-.5,0-2.7.3-2.8,1.1a23.5,23.5,0,0,0-.1,2.7c0,2.2,0,4.4.1,6.7a141.6,141.6,0,0,0,.9,17.2c.9,6.8,2.9,14.2,7.2,19.7A28.3,28.3,0,0,0,31.7,85.6a26.2,26.2,0,0,0,18.8-6.3,30,30,0,0,1,2.6,4.6,18.5,18.5,0,0,1,2,10.6c0,.6.6.9,1.2,1h1c.7.1,2.3-.4,2.3-1.3a27,27,0,0,1,4.9-13.5,18.8,18.8,0,0,0,14.6,6.6,23.2,23.2,0,0,0,14.5-6c6.3-5.7,9.5-14,10.8-22.2a38.3,38.3,0,0,0,.7-5.8A1.1,1.1,0,0,0,104.3,52.3ZM38.7,63a36.2,36.2,0,0,0-3.2-2.2c-1.1-.8-4.2.8-2.7,1.8a67.6,67.6,0,0,1,8,6.1,55.6,55.6,0,0,1,8.5,9,21.3,21.3,0,0,1-6.8,5.1A16.7,16.7,0,0,1,32.9,84,26.2,26.2,0,0,1,14.8,72.8c-3.5-5.3-5.3-11.9-6.1-18.2a139.9,139.9,0,0,1-1-15.9V29.4c9.6.3,19.2,2.2,27.7,6.5a48,48,0,0,1,12.4,9c3.7,3.8,6.9,8.4,7.9,13.7S54.9,70.3,51.5,75A72.9,72.9,0,0,0,38.7,63ZM99,67c-2.7,7.9-7.9,15.1-16.3,17.3a15.2,15.2,0,0,1-16-6.3l1.8-1.9a27.5,27.5,0,0,1,9.3-5.2c.6-.2,1.6-.7,1.4-1.5s-1.4-.8-2-.6a31.7,31.7,0,0,0-11.8,6.8,15.9,15.9,0,0,1,3.2-16.1c4.9-5.7,12.3-6.9,19.4-6.8a56.2,56.2,0,0,1,13.5,1.8A44.1,44.1,0,0,1,99,67Z" transform="translate(-4.2 -21.1)"/>
    </g>
  </g>
  <g id="Heart">
    <g id="Heart-2" data-name="Heart">
      <path class="cls-2" d="M66.5,44.2c-1.3.8-8.9-7-9.7-8-9.7-11.4,1.7-18.8,10.5-6.8,4.8-11.6,21.3-10.6,15.9.5C80.2,36.1,72.3,40.9,66.5,44.2Z" transform="translate(-4.2 -21.1)"/>
    </g>
  </g>
</svg>
